<svg width="14" height="14" viewBox="0 0 14 14" fill="none" xmlns="http://www.w3.org/2000/svg">
<g clip-path="url(#clip0_64_6169)">
<path d="M13.9851 4.11604C13.9523 3.37216 13.832 2.86076 13.6597 2.41762C13.4819 1.94723 13.2085 1.5261 12.8501 1.17601C12.5001 0.820473 12.0761 0.544204 11.6112 0.369213C11.1655 0.196892 10.6568 0.0765988 9.9129 0.0438013C9.16347 0.00822609 8.92556 0 7.0248 0C5.12404 0 4.88612 0.00822609 4.13947 0.0410236C3.3956 0.0738212 2.88419 0.194221 2.44116 0.366435C1.97067 0.544204 1.54954 0.817695 1.19945 1.17601C0.843909 1.5261 0.567748 1.95001 0.39265 2.41495C0.220329 2.86076 0.100036 3.36939 0.0672387 4.11326C0.0316636 4.86269 0.0234375 5.10061 0.0234375 7.00137C0.0234375 8.90213 0.0316636 9.14005 0.0644611 9.8867C0.0972586 10.6306 0.217659 11.142 0.389979 11.5851C0.567748 12.0555 0.843909 12.4766 1.19945 12.8267C1.54954 13.1823 1.97345 13.4585 2.43838 13.6335C2.88419 13.8058 3.39282 13.9261 4.1368 13.9589C4.88334 13.9918 5.12137 14 7.02212 14C8.92288 14 9.1608 13.9918 9.90745 13.9589C10.6513 13.9261 11.1627 13.8058 11.6058 13.6335C12.5466 13.2698 13.2905 12.5259 13.6543 11.5851C13.8265 11.1393 13.9469 10.6306 13.9797 9.8867C14.0125 9.14005 14.0207 8.90213 14.0207 7.00137C14.0207 5.10061 14.0179 4.86269 13.9851 4.11604ZM12.7244 9.832C12.6943 10.5157 12.5794 10.8849 12.4837 11.1311C12.2485 11.741 11.7644 12.225 11.1545 12.4603C10.9084 12.556 10.5365 12.6709 9.85542 12.7009C9.117 12.7338 8.89553 12.7419 7.02757 12.7419C5.15961 12.7419 4.93537 12.7338 4.19962 12.7009C3.51589 12.6709 3.14668 12.556 2.90054 12.4603C2.59703 12.3481 2.32076 12.1703 2.09652 11.9379C1.86405 11.7109 1.68628 11.4374 1.57411 11.1339C1.47839 10.8877 1.36354 10.5157 1.33352 9.83478C1.30062 9.09635 1.2925 8.87478 1.2925 7.00682C1.2925 5.13885 1.30062 4.91461 1.33352 4.17896C1.36354 3.49524 1.47839 3.12602 1.57411 2.87988C1.68628 2.57626 1.86405 2.3001 2.09929 2.07575C2.32621 1.84329 2.5997 1.66552 2.90331 1.55345C3.14946 1.45773 3.52145 1.34288 4.20239 1.31276C4.94082 1.27996 5.16239 1.27173 7.03024 1.27173C8.90098 1.27173 9.12245 1.27996 9.8582 1.31276C10.5419 1.34288 10.9111 1.45773 11.1573 1.55345C11.4608 1.66552 11.7371 1.84329 11.9613 2.07575C12.1938 2.30277 12.3715 2.57626 12.4837 2.87988C12.5794 3.12602 12.6943 3.49791 12.7244 4.17896C12.7572 4.91739 12.7654 5.13885 12.7654 7.00682C12.7654 8.87478 12.7572 9.09357 12.7244 9.832Z" fill="#AB1D1D"/>
<path d="M7.02609 3.40527C5.04061 3.40527 3.42969 5.01609 3.42969 7.00168C3.42969 8.98727 5.04061 10.5981 7.02609 10.5981C9.01168 10.5981 10.6225 8.98727 10.6225 7.00168C10.6225 5.01609 9.01168 3.40527 7.02609 3.40527ZM7.02609 9.33458C5.73801 9.33458 4.69319 8.28986 4.69319 7.00168C4.69319 5.71349 5.73801 4.66878 7.02609 4.66878C8.31428 4.66878 9.35899 5.71349 9.35899 7.00168C9.35899 8.28986 8.31428 9.33458 7.02609 9.33458Z" fill="#AB1D1D"/>
<path d="M11.6051 3.26245C11.6051 3.7261 11.2291 4.10205 10.7654 4.10205C10.3017 4.10205 9.92578 3.7261 9.92578 3.26245C9.92578 2.79869 10.3017 2.42285 10.7654 2.42285C11.2291 2.42285 11.6051 2.79869 11.6051 3.26245Z" fill="#AB1D1D"/>
</g>
<defs>
<clipPath id="clip0_64_6169">
<rect width="14" height="14" fill="white"/>
</clipPath>
</defs>
</svg>
