<svg width="675" height="735" viewBox="0 0 675 735" fill="none" xmlns="http://www.w3.org/2000/svg">
<g id="Mask group">
<mask id="mask0_60_4545" style="mask-type:alpha" maskUnits="userSpaceOnUse" x="0" y="0" width="675" height="735">
<rect id="Rectangle 18" width="675" height="735" fill="#D9D9D9"/>
</mask>
<g mask="url(#mask0_60_4545)">
<g id="g8">
<g id="g10">
<g id="path14" filter="url(#filter0_d_60_4545)">
<path d="M598.786 188.268H597.844V89.3727C597.844 56.5816 571.263 30 538.472 30H178.59C145.799 30 119.217 56.5816 119.217 89.3727V188.268H118.275C113.994 188.268 110.523 191.736 110.523 196.021V264.428C110.523 268.712 113.994 272.18 118.275 272.18H119.217V288.497H118.275C113.994 288.497 110.523 291.965 110.523 296.249V364.656C110.523 368.941 113.994 372.409 118.275 372.409H119.217V852.627C119.217 885.418 145.799 912 178.59 912H538.472C571.263 912 597.844 885.418 597.844 852.627V314.137H598.786C603.07 314.137 606.539 310.668 606.539 306.384V196.021C606.539 191.736 603.07 188.268 598.786 188.268Z" fill="url(#paint0_linear_60_4545)"/>
</g>
<path id="path16" d="M532.348 894.722H184.72C158.087 894.722 136.496 873.133 136.496 846.5V92.9064C136.496 66.2736 158.087 44.6848 184.72 44.6848H532.348C558.981 44.6848 580.57 66.2736 580.57 92.9064V846.5C580.57 873.133 558.981 894.722 532.348 894.722Z" fill="black"/>
<g id="rotate_phone_logo" filter="url(#filter1_d_60_4545)">
<path d="M259.256 459.771L289.33 442.459L358.462 482.264L397.484 459.733L328.426 419.853L358.801 402.692L457.707 459.733L358.462 517L259.218 459.733L259.256 459.771ZM460 421.167V455.715L360.756 398.524V373.101L390.83 355.752V381.099L460 421.017V421.167ZM460 316.022V415.309L429.926 397.96V333.371L460 316.022ZM457.744 312.267L427.67 329.616L358.5 289.736L319.479 312.267L388.574 352.184L358.199 369.346L259.256 312.229L358.462 255L457.744 312.229V312.267ZM257 350.87V316.022L356.244 373.289V398.711L326.17 416.06V390.638L257 350.757V350.87ZM257 356.015L287.074 374.528V438.704L257 456.016V355.902V356.015Z" fill="url(#paint1_linear_60_4545)"/>
</g>
</g>
</g>
</g>
</g>
<defs>
<filter id="filter0_d_60_4545" x="10.5234" y="-66" width="696.016" height="1082" filterUnits="userSpaceOnUse" color-interpolation-filters="sRGB">
<feFlood flood-opacity="0" result="BackgroundImageFix"/>
<feColorMatrix in="SourceAlpha" type="matrix" values="0 0 0 0 0 0 0 0 0 0 0 0 0 0 0 0 0 0 127 0" result="hardAlpha"/>
<feOffset dy="4"/>
<feGaussianBlur stdDeviation="50"/>
<feComposite in2="hardAlpha" operator="out"/>
<feColorMatrix type="matrix" values="0 0 0 0 0 0 0 0 0 0 0 0 0 0 0 0 0 0 0.5 0"/>
<feBlend mode="normal" in2="BackgroundImageFix" result="effect1_dropShadow_60_4545"/>
<feBlend mode="normal" in="SourceGraphic" in2="effect1_dropShadow_60_4545" result="shape"/>
</filter>
<filter id="filter1_d_60_4545" x="207" y="209" width="303" height="362" filterUnits="userSpaceOnUse" color-interpolation-filters="sRGB">
<feFlood flood-opacity="0" result="BackgroundImageFix"/>
<feColorMatrix in="SourceAlpha" type="matrix" values="0 0 0 0 0 0 0 0 0 0 0 0 0 0 0 0 0 0 127 0" result="hardAlpha"/>
<feOffset dy="4"/>
<feGaussianBlur stdDeviation="25"/>
<feComposite in2="hardAlpha" operator="out"/>
<feColorMatrix type="matrix" values="0 0 0 0 0.74902 0 0 0 0 0.0705882 0 0 0 0 0.0196078 0 0 0 0.5 0"/>
<feBlend mode="normal" in2="BackgroundImageFix" result="effect1_dropShadow_60_4545"/>
<feBlend mode="normal" in="SourceGraphic" in2="effect1_dropShadow_60_4545" result="shape"/>
</filter>
<linearGradient id="paint0_linear_60_4545" x1="358.531" y1="1030.89" x2="358.531" y2="30" gradientUnits="userSpaceOnUse">
<stop stop-color="#7F0011"/>
<stop offset="1" stop-color="#C02714"/>
</linearGradient>
<linearGradient id="paint1_linear_60_4545" x1="216.438" y1="499.651" x2="575.932" y2="211.286" gradientUnits="userSpaceOnUse">
<stop stop-color="#D41700"/>
<stop offset="1" stop-color="#7F0011"/>
</linearGradient>
</defs>
</svg>
